<svg width="324" height="37" viewBox="0 0 324 37" fill="none" xmlns="http://www.w3.org/2000/svg">
<path d="M6.00009 1.92002L16.2721 29.424L26.4961 1.92002H32.2081L18.8161 36H13.7281L0.288086 1.92002H6.00009Z" fill="#141414"/>
<path d="M35.6993 36V10.896H40.9793V36H35.6993ZM35.6993 6.76802V0.960022H40.9793V6.76802H35.6993Z" fill="#141414"/>
<path d="M69.8363 36H64.5563V21.936C64.5563 19.6 64.1723 17.888 63.4043 16.8C62.6683 15.712 61.5643 15.168 60.0923 15.168C59.0683 15.168 58.0443 15.424 57.0203 15.936C56.0283 16.448 55.1323 17.152 54.3323 18.048C53.5323 18.912 52.9563 19.92 52.6043 21.072V36H47.3243V10.896H52.1243V15.936C52.7643 14.816 53.5963 13.856 54.6203 13.056C55.6763 12.224 56.8603 11.584 58.1723 11.136C59.4843 10.688 60.8763 10.464 62.3483 10.464C63.8523 10.464 65.0843 10.736 66.0443 11.28C67.0363 11.824 67.8043 12.576 68.3483 13.536C68.9243 14.464 69.3083 15.552 69.5003 16.8C69.7243 18.016 69.8363 19.312 69.8363 20.688V36Z" fill="#141414"/>
<path d="M75.965 36V10.896H81.245V36H75.965ZM80.429 7.29602L76.973 6.24002L79.709 0.960022H84.749L80.429 7.29602Z" fill="#141414"/>
<path d="M98.966 36.48C97.014 36.48 95.238 36.144 93.638 35.472C92.07 34.768 90.71 33.808 89.558 32.592C88.406 31.376 87.51 29.984 86.87 28.416C86.262 26.848 85.958 25.184 85.958 23.424C85.958 21.056 86.486 18.896 87.542 16.944C88.63 14.992 90.134 13.424 92.054 12.24C94.006 11.056 96.31 10.464 98.966 10.464C101.526 10.464 103.75 11.04 105.638 12.192C107.558 13.312 108.966 14.816 109.862 16.704L104.726 18.336C104.15 17.28 103.334 16.464 102.278 15.888C101.254 15.28 100.118 14.976 98.87 14.976C97.462 14.976 96.182 15.344 95.03 16.08C93.91 16.784 93.014 17.776 92.342 19.056C91.702 20.304 91.382 21.76 91.382 23.424C91.382 25.024 91.718 26.48 92.39 27.792C93.062 29.072 93.958 30.096 95.078 30.864C96.23 31.6 97.51 31.968 98.918 31.968C99.782 31.968 100.614 31.824 101.414 31.536C102.246 31.216 102.966 30.8 103.574 30.288C104.182 29.744 104.614 29.152 104.87 28.512L110.054 30.048C109.51 31.296 108.694 32.4 107.606 33.36C106.55 34.32 105.286 35.088 103.814 35.664C102.374 36.208 100.758 36.48 98.966 36.48Z" fill="#141414"/>
<path d="M114.402 36V10.896H119.682V36H114.402ZM114.402 6.76802V0.960022H119.682V6.76802H114.402Z" fill="#141414"/>
<path d="M125.787 26.256V10.896H131.067V25.2C131.067 27.44 131.467 29.136 132.267 30.288C133.099 31.408 134.299 31.968 135.867 31.968C136.859 31.968 137.819 31.76 138.747 31.344C139.707 30.928 140.571 30.32 141.339 29.52C142.139 28.688 142.779 27.696 143.259 26.544V10.896H148.539V30.048C148.539 30.656 148.651 31.088 148.875 31.344C149.099 31.6 149.467 31.744 149.979 31.776V36C149.435 36.096 148.987 36.16 148.635 36.192C148.283 36.224 147.947 36.24 147.627 36.24C146.667 36.24 145.867 35.984 145.227 35.472C144.587 34.928 144.219 34.24 144.123 33.408L144.027 30.912C142.907 32.736 141.451 34.128 139.659 35.088C137.867 36.016 135.899 36.48 133.755 36.48C131.131 36.48 129.147 35.616 127.803 33.888C126.459 32.16 125.787 29.616 125.787 26.256Z" fill="#141414"/>
<path d="M164.205 36.48C162.093 36.48 160.093 36.144 158.205 35.472C156.317 34.768 154.701 33.728 153.357 32.352L155.325 28.8C156.765 30.08 158.205 31.008 159.645 31.584C161.117 32.16 162.573 32.448 164.013 32.448C165.485 32.448 166.685 32.176 167.613 31.632C168.541 31.056 169.005 30.224 169.005 29.136C169.005 28.336 168.765 27.744 168.285 27.36C167.805 26.976 167.101 26.64 166.173 26.352C165.277 26.064 164.189 25.744 162.909 25.392C161.117 24.848 159.613 24.288 158.397 23.712C157.181 23.104 156.269 22.368 155.661 21.504C155.053 20.64 154.749 19.536 154.749 18.192C154.749 16.56 155.165 15.168 155.997 14.016C156.829 12.864 157.981 11.984 159.453 11.376C160.957 10.768 162.685 10.464 164.637 10.464C166.461 10.464 168.141 10.752 169.677 11.328C171.245 11.872 172.621 12.736 173.805 13.92L171.549 17.424C170.429 16.4 169.277 15.648 168.093 15.168C166.941 14.688 165.693 14.448 164.349 14.448C163.581 14.448 162.845 14.544 162.141 14.736C161.437 14.896 160.845 15.216 160.365 15.696C159.917 16.144 159.693 16.784 159.693 17.616C159.693 18.288 159.885 18.832 160.269 19.248C160.653 19.664 161.229 20.016 161.997 20.304C162.765 20.592 163.709 20.912 164.829 21.264C166.781 21.84 168.445 22.416 169.821 22.992C171.197 23.536 172.253 24.256 172.989 25.152C173.757 26.016 174.141 27.216 174.141 28.752C174.141 31.184 173.229 33.088 171.405 34.464C169.613 35.808 167.213 36.48 164.205 36.48Z" fill="#141414"/>
<path d="M211.547 9.93602C211.227 9.58402 210.763 9.21602 210.155 8.83202C209.547 8.41602 208.827 8.03202 207.995 7.68002C207.163 7.32802 206.267 7.04002 205.307 6.81602C204.347 6.59202 203.355 6.48002 202.331 6.48002C200.091 6.48002 198.427 6.89602 197.339 7.72802C196.251 8.56002 195.707 9.71202 195.707 11.184C195.707 12.272 196.011 13.136 196.619 13.776C197.227 14.384 198.155 14.896 199.403 15.312C200.651 15.728 202.219 16.176 204.107 16.656C206.411 17.2 208.411 17.856 210.107 18.624C211.803 19.36 213.099 20.352 213.995 21.6C214.891 22.848 215.339 24.496 215.339 26.544C215.339 28.272 215.019 29.76 214.379 31.008C213.739 32.256 212.843 33.28 211.691 34.08C210.539 34.848 209.211 35.424 207.707 35.808C206.203 36.16 204.587 36.336 202.859 36.336C201.163 36.336 199.467 36.16 197.771 35.808C196.107 35.456 194.507 34.944 192.971 34.272C191.467 33.568 190.075 32.72 188.795 31.728L191.243 27.12C191.659 27.536 192.251 28 193.019 28.512C193.819 28.992 194.731 29.456 195.755 29.904C196.811 30.352 197.947 30.736 199.163 31.056C200.411 31.344 201.675 31.488 202.955 31.488C205.099 31.488 206.731 31.12 207.851 30.384C209.003 29.616 209.579 28.528 209.579 27.12C209.579 25.968 209.211 25.056 208.475 24.384C207.739 23.68 206.667 23.088 205.259 22.608C203.851 22.128 202.171 21.648 200.219 21.168C197.979 20.56 196.107 19.904 194.603 19.2C193.099 18.464 191.963 17.536 191.195 16.416C190.459 15.264 190.091 13.808 190.091 12.048C190.091 9.80802 190.635 7.92002 191.723 6.38402C192.811 4.81602 194.283 3.64802 196.139 2.88002C198.027 2.08002 200.139 1.68002 202.475 1.68002C204.011 1.68002 205.467 1.85602 206.843 2.20802C208.219 2.52802 209.499 2.97602 210.683 3.55202C211.899 4.12802 213.003 4.78402 213.995 5.52002L211.547 9.93602Z" fill="#141414"/>
<path d="M231.339 36.48C229.355 36.48 227.579 36.144 226.011 35.472C224.443 34.768 223.083 33.808 221.931 32.592C220.811 31.376 219.947 30 219.339 28.464C218.731 26.896 218.427 25.232 218.427 23.472C218.427 21.712 218.731 20.048 219.339 18.48C219.947 16.912 220.811 15.536 221.931 14.352C223.083 13.136 224.443 12.192 226.011 11.52C227.611 10.816 229.387 10.464 231.339 10.464C233.291 10.464 235.051 10.816 236.619 11.52C238.219 12.192 239.579 13.136 240.699 14.352C241.851 15.536 242.731 16.912 243.339 18.48C243.947 20.048 244.251 21.712 244.251 23.472C244.251 25.232 243.947 26.896 243.339 28.464C242.731 30 241.851 31.376 240.699 32.592C239.579 33.808 238.219 34.768 236.619 35.472C235.051 36.144 233.291 36.48 231.339 36.48ZM223.851 23.52C223.851 25.12 224.187 26.56 224.859 27.84C225.531 29.12 226.427 30.128 227.547 30.864C228.667 31.6 229.931 31.968 231.339 31.968C232.715 31.968 233.963 31.6 235.083 30.864C236.235 30.096 237.147 29.072 237.819 27.792C238.491 26.48 238.827 25.04 238.827 23.472C238.827 21.872 238.491 20.432 237.819 19.152C237.147 17.872 236.235 16.864 235.083 16.128C233.963 15.36 232.715 14.976 231.339 14.976C229.931 14.976 228.667 15.36 227.547 16.128C226.427 16.896 225.531 17.92 224.859 19.2C224.187 20.448 223.851 21.888 223.851 23.52Z" fill="#141414"/>
<path d="M248.694 26.256V10.896H253.974V25.2C253.974 27.44 254.374 29.136 255.174 30.288C256.006 31.408 257.206 31.968 258.774 31.968C259.766 31.968 260.726 31.76 261.654 31.344C262.614 30.928 263.478 30.32 264.246 29.52C265.046 28.688 265.686 27.696 266.166 26.544V10.896H271.446V30.048C271.446 30.656 271.558 31.088 271.782 31.344C272.006 31.6 272.374 31.744 272.886 31.776V36C272.342 36.096 271.894 36.16 271.542 36.192C271.19 36.224 270.854 36.24 270.534 36.24C269.574 36.24 268.774 35.984 268.134 35.472C267.494 34.928 267.126 34.24 267.03 33.408L266.934 30.912C265.814 32.736 264.358 34.128 262.566 35.088C260.774 36.016 258.806 36.48 256.662 36.48C254.038 36.48 252.054 35.616 250.71 33.888C249.366 32.16 248.694 29.616 248.694 26.256Z" fill="#141414"/>
<path d="M276.36 32.688L291.24 14.64H276.888V10.896H297V14.208L282.216 32.256H297.144V36H276.36V32.688Z" fill="#141414"/>
<path d="M300.032 28.656C300.032 27.056 300.48 25.664 301.376 24.48C302.304 23.264 303.568 22.336 305.168 21.696C306.768 21.024 308.624 20.688 310.736 20.688C311.856 20.688 312.992 20.768 314.144 20.928C315.328 21.088 316.368 21.344 317.264 21.696V20.112C317.264 18.352 316.736 16.976 315.68 15.984C314.624 14.992 313.104 14.496 311.12 14.496C309.712 14.496 308.384 14.752 307.136 15.264C305.888 15.744 304.56 16.432 303.152 17.328L301.376 13.776C303.04 12.656 304.704 11.824 306.368 11.28C308.064 10.736 309.84 10.464 311.696 10.464C315.056 10.464 317.696 11.36 319.616 13.152C321.568 14.912 322.544 17.424 322.544 20.688V30.048C322.544 30.656 322.64 31.088 322.832 31.344C323.056 31.6 323.424 31.744 323.936 31.776V36C323.456 36.096 323.024 36.16 322.64 36.192C322.256 36.224 321.936 36.24 321.68 36.24C320.56 36.24 319.712 35.968 319.136 35.424C318.56 34.88 318.224 34.24 318.128 33.504L317.984 32.064C316.896 33.472 315.504 34.56 313.808 35.328C312.112 36.096 310.4 36.48 308.672 36.48C307.008 36.48 305.52 36.144 304.208 35.472C302.896 34.768 301.872 33.824 301.136 32.64C300.4 31.456 300.032 30.128 300.032 28.656ZM316.016 30.192C316.4 29.776 316.704 29.36 316.928 28.944C317.152 28.528 317.264 28.16 317.264 27.84V24.96C316.368 24.608 315.424 24.352 314.432 24.192C313.44 24 312.464 23.904 311.504 23.904C309.584 23.904 308.016 24.288 306.8 25.056C305.616 25.824 305.024 26.88 305.024 28.224C305.024 28.96 305.216 29.664 305.6 30.336C306.016 31.008 306.592 31.552 307.328 31.968C308.096 32.384 309.04 32.592 310.16 32.592C311.312 32.592 312.416 32.368 313.472 31.92C314.528 31.472 315.376 30.896 316.016 30.192Z" fill="#141414"/>
</svg>
